<?xml version="1.0" standalone="no"?>
<!DOCTYPE svg PUBLIC "-//W3C//DTD SVG 1.1//EN" "http://www.w3.org/Graphics/SVG/1.1/DTD/svg11.dtd" >
<svg xmlns="http://www.w3.org/2000/svg">
<metadata>Generated by IcoMoon</metadata>
<defs>
<font id="icomoon" horiz-adv-x="1024">
<font-face units-per-em="1024" ascent="960" descent="-64" />
<missing-glyph horiz-adv-x="1024" />
<glyph unicode="&#x20;" horiz-adv-x="512" d="" />
<glyph unicode="&#xe900;" glyph-name="msplayer-close" horiz-adv-x="1036" d="M997.498 94.042l-354.762 354.762 354.762 354.762c35.479 35.479 35.479 93.533 0 129.012s-93.533 35.479-129.012 0l-354.762-354.762-354.762 354.762c-35.479 35.479-93.533 35.479-129 0-35.479-35.479-35.479-93.533 0-129.012l354.762-354.762-354.762-354.762c-35.479-35.479-35.479-93.533 0-129.012 35.467-35.467 93.521-35.467 129 0.012l354.762 354.762 354.774-354.762c35.467-35.479 93.521-35.479 129-0.012 35.479 35.479 35.479 93.533 0 129.012z" />
<glyph unicode="&#xe901;" glyph-name="msplayer-scrubber" d="M150.4 86.4c-100.288 100.288-150.4 220.8-150.4 361.6s50.112 261.312 150.4 361.6c100.288 100.288 220.8 150.4 361.6 150.4s261.312-50.112 361.6-150.4c100.288-100.288 150.4-220.8 150.4-361.6s-50.112-261.312-150.4-361.6c-100.288-100.288-220.8-150.4-361.6-150.4s-261.312 50.112-361.6 150.4z" />
<glyph unicode="&#xe902;" glyph-name="msplayer-share" d="M742.4 678.4c-31.671 31.707-47.543 70.693-47.543 117.029 0 45.093 15.872 84.114 47.543 117.029 31.707 31.707 70.693 47.543 117.029 47.543 45.093 0 83.493-15.835 115.2-47.543 32.914-32.914 49.371-71.936 49.371-117.029 0-46.336-16.457-85.321-49.371-117.029-31.707-31.707-68.864-47.543-111.543-47.543h-5.486c-45.093 0-83.493 15.835-115.2 47.543zM1024 100.571c0-46.336-16.457-85.321-49.371-117.029-31.707-31.671-68.864-47.543-111.543-47.543h-5.486c-45.093 0-83.493 15.872-115.2 47.543-31.671 31.707-47.543 70.729-47.543 117.029 0 45.093 15.872 84.114 47.543 117.029 31.707 31.671 70.729 47.543 117.029 47.543 45.093 0 83.493-15.872 115.2-47.543 32.914-32.914 49.371-71.936 49.371-117.029zM162.743 612.571h5.486c42.679 0 79.835-15.835 111.543-47.543 32.914-32.914 49.371-71.936 49.371-117.029 0-30.464-7.314-57.893-21.943-82.286-7.314-12.178-16.457-23.771-27.429-34.743-31.707-31.671-70.107-47.543-115.2-47.543-46.336 0-85.321 15.872-117.029 47.543-10.971 10.971-19.493 22.565-25.6 34.743-14.629 24.393-21.943 51.822-21.943 82.286 0 45.093 15.835 84.114 47.543 117.029 31.707 31.707 70.107 47.543 115.2 47.543zM869.486 162.743c13.458-6.875 22.601-17.554 27.429-32 4.901-14.409 3.95-28.379-2.743-42.057-6.875-13.495-17.554-22.638-32-27.429-14.373-4.864-28.343-3.95-42.057 2.743l-671.086 334.629c-12.581 6.363-21.431 16.091-26.514 29.257-5.083 13.056-5.083 26.185 0 39.314s13.934 22.857 26.514 29.257l658.286 338.286c13.275 6.985 26.99 8.229 41.143 3.657 14.409-4.718 25.051-13.861 32-27.429 6.985-13.275 8.229-26.99 3.657-41.143-4.754-14.373-13.897-25.015-27.429-32l-561.371-288.914 574.171-286.171z" />
<glyph unicode="&#xe903;" glyph-name="msplayer-facebook" horiz-adv-x="492" d="M115.645 619.979h-104.766v-171.020h104.766v-502.372h201.469v504.514h140.547l14.972 168.878h-155.519v96.197c0 39.818 8.015 55.578 46.492 55.578h109.015v175.292h-139.476c-149.916 0-217.5-65.995-217.5-192.394v-134.674z" />
<glyph unicode="&#xe904;" glyph-name="msplayer-fullscreen-in" horiz-adv-x="1238" d="M367.926 950.474h-342.921c-10.716 0-19.051-8.335-19.051-19.051v0-342.921c0-13.098 10.716-23.814 23.814-23.814h46.437c13.098 0 23.814 10.716 23.814 23.814v267.907h267.907c13.098 0 23.814 10.716 23.814 23.814v46.437c0 13.098-10.716 23.814-23.814 23.814v0 0zM1235.944 589.693v342.921c0 10.716-8.335 19.051-19.051 19.051v0h-342.921c-13.098 0-23.814-10.716-23.814-23.814v-46.437c0-13.098 10.716-23.814 23.814-23.814h267.907v-267.907c0-13.098 10.716-23.814 23.814-23.814h46.437c13.098 0 23.814 10.716 23.814 23.814v0 0zM873.972-61.619h342.921c10.716 0 19.051 8.335 19.051 19.051v0 342.921c0 13.098-10.716 23.814-23.814 23.814h-46.437c-13.098 0-23.814-10.716-23.814-23.814v-267.907h-267.907c-13.098 0-23.814-10.716-23.814-23.814v-46.437c0-13.098 10.716-23.814 23.814-23.814v0 0zM5.953 300.353v-342.921c0-10.716 8.335-19.051 19.051-19.051v0h342.921c13.098 0 23.814 10.716 23.814 23.814v46.437c0 13.098-10.716 23.814-23.814 23.814h-267.907v267.907c0 13.098-10.716 23.814-23.814 23.814h-46.437c-13.098-1.191-23.814-10.716-23.814-23.814v0 0z" />
<glyph unicode="&#xe905;" glyph-name="msplayer-fullscreen-out" horiz-adv-x="1238" d="M26.195 565.879h342.921c10.716 0 19.051 8.335 19.051 19.051v0 342.921c0 13.098-10.716 23.814-23.814 23.814h-46.437c-13.098 0-23.814-10.716-23.814-23.814v-267.907h-267.907c-13.098 0-23.814-10.716-23.814-23.814v-46.437c0-13.098 10.716-23.814 23.814-23.814v0 0zM846.586 927.851v-342.921c0-10.716 8.335-19.051 19.051-19.051v0h342.921c13.098 0 23.814 10.716 23.814 23.814v46.437c0 13.098-10.716 23.814-23.814 23.814h-267.907v267.907c0 13.098-10.716 23.814-23.814 23.814h-46.437c-13.098-1.191-23.814-11.907-23.814-23.814v0 0zM1207.367 322.977h-342.921c-10.716 0-19.051-8.335-19.051-19.051v0-342.921c0-13.098 10.716-23.814 23.814-23.814h46.437c13.098 0 23.814 10.716 23.814 23.814v267.907h267.907c13.098 0 23.814 10.716 23.814 23.814v46.437c0 14.288-10.716 23.814-23.814 23.814v0 0zM388.167-37.805v342.921c0 10.716-8.335 19.051-19.051 19.051v0h-342.921c-13.098 0-23.814-10.716-23.814-23.814v-46.437c0-13.098 10.716-23.814 23.814-23.814h267.907v-267.907c0-13.098 10.716-23.814 23.814-23.814h46.437c13.098 0 23.814 10.716 23.814 23.814v0 0z" />
<glyph unicode="&#xe906;" glyph-name="msplayer-google-plus" horiz-adv-x="1761" d="M1733.391 380.442h-211.862v-211.862h-153.011v211.862h-211.862v141.241h211.862v211.862h153.011v-211.862h211.862v-141.241zM521.069 521.683v-164.782h281.435c-11.429-82.391-85.745-220.078-283.672-220.078-170.773 0-310.119 139.264-310.119 313.685 0 174.351 139.346 314.768 310.119 314.768 97.174 0 162.204-41.984 199.362-77.706l135.757 130.495c-87.169 81.461-200.068 130.625-335.119 130.625-276.527 0-500.183-223.715-500.183-500.253 0-276.527 223.656-500.218 500.183-500.218 288.674 0 480.256 203.847 480.256 489.66 0 32.874-3.649 60.263-7.945 83.803h-470.075z" />
<glyph unicode="&#xe907;" glyph-name="msplayer-pause" horiz-adv-x="768" d="M43.886 952.686c5.486 4.882 11.282 7.314 17.371 7.314h169.143c6.711 0 12.489-2.432 17.371-7.314 5.486-5.486 8.229-11.575 8.229-18.286v-971.886c0-6.711-2.743-12.8-8.229-18.286-4.882-5.486-10.661-8.229-17.371-8.229h-169.143c-6.089 0-11.886 2.743-17.371 8.229-4.882 5.486-7.314 11.575-7.314 18.286v971.886c0 6.711 2.432 12.8 7.314 18.286zM537.6 960h168.229c7.314 0 13.403-2.432 18.286-7.314 4.882-5.486 7.314-11.575 7.314-18.286v-971.886c0-6.711-2.45-12.8-7.314-18.286s-10.971-8.229-18.286-8.229h-168.229c-6.711 0-12.8 2.743-18.286 8.229-4.882 5.486-7.314 11.575-7.314 18.286v971.886c0 6.711 2.45 12.8 7.314 18.286 5.486 4.882 11.575 7.314 18.286 7.314z" />
<glyph unicode="&#xe908;" glyph-name="msplayer-play" horiz-adv-x="768" d="M757.029 468.114c4.261-3.054 7.607-7.625 10.057-13.714 1.829-4.882 1.829-10.368 0-16.457-2.45-4.882-5.778-9.143-10.057-12.8l-713.143-484.571c-6.089-3.054-12.197-4.571-18.286-4.571-6.089 1.207-11.282 4.261-15.543 9.143-4.261 5.486-6.4 11.264-6.4 17.371l-3.657 971.886c0 6.089 2.139 11.575 6.4 16.457 4.261 5.486 9.454 8.539 15.543 9.143 6.711 0.603 12.8-0.603 18.286-3.657l716.8-488.229z" />
<glyph unicode="&#xe909;" glyph-name="msplayer-mute" d="M639.383 449.617l354.762 354.762c35.479 35.479 35.479 93.533 0 129.012s-93.533 35.479-129.012 0l-354.762-354.762-354.762 354.762c-35.479 35.479-93.533 35.479-129 0-35.479-35.479-35.479-93.533 0-129.012l354.762-354.762-354.762-354.762c-35.479-35.479-35.479-93.533 0-129.012 35.467-35.467 93.521-35.467 129 0.012l354.762 354.762 354.774-354.762c35.467-35.479 93.521-35.479 129-0.012 35.479 35.479 35.479 93.533 0 129.012l-354.762 354.762z" />
<glyph unicode="&#xe90a;" glyph-name="msplayer-next" horiz-adv-x="617" d="M613.030 448.034l-477.159 477.1c-30.984 30.973-81.668 30.973-112.641 0-30.973-30.985-30.973-81.668 0-112.641l364.495-364.495-364.495-364.495c-30.973-30.973-30.973-81.656 0-112.629 30.973-30.985 81.656-30.985 112.641 0l477.159 477.159z" />
<glyph unicode="&#xe90b;" glyph-name="msplayer-volume-bar-value" horiz-adv-x="3413" d="M3413.333 960v-1024h-97.524v1024h97.524zM3218.286 960v-1024h-97.524v1024h97.524zM3023.238-64h-97.524v1024h97.524v-1024zM2828.19 960v-1024h-97.524v1024h97.524zM2633.143 960v-1024h-97.524v1024h97.524zM2243.048 960v-1024h-97.524v1024h97.524zM2438.095 960v-1024h-97.524v1024h97.524zM2048-64h-97.524v1024h97.524v-1024zM1852.952 960v-1024h-97.524v1024h97.524zM1657.905 960v-1024h-97.524v1024h97.524zM1462.857 960v-1024h-97.524v1024h97.524zM1267.81 960v-1024h-97.524v1024h97.524zM1072.762-64h-97.524v1024h97.524v-1024zM877.714 960v-1024h-97.524v1024h97.524zM682.667 960v-1024h-97.524v1024h97.524zM292.571 960v-1024h-97.524v1024h97.524zM97.524 960v-1024h-97.524v1024h97.524zM487.619 960v-1024h-97.524v1024h97.524z" />
<glyph unicode="&#xe90c;" glyph-name="msplayer-pause-inset" horiz-adv-x="1046" d="M526.51-64v0c-282.77 0-512 229.23-512 512s229.23 512 512 512c282.77 0 512-229.23 512-512s-229.23-512-512-512zM526.51-12.8c254.493 0 460.8 206.307 460.8 460.8s-206.307 460.8-460.8 460.8c-254.493 0-460.8-206.307-460.8-460.8s206.307-460.8 460.8-460.8v0zM466.2 169.185h-75.435c-7.216 0-13.119 5.877-13.119 13.059v527.594c0 7.183 5.904 13.059 13.119 13.059h75.435c7.216 0 13.119-5.877 13.119-13.059v-527.594c0-7.183-5.904-13.059-13.119-13.059v0 0zM669.547 169.185h-75.435c-7.216 0-13.119 5.877-13.119 13.059v527.594c0 7.183 5.904 13.059 13.119 13.059h75.435c7.216 0 13.119-5.877 13.119-13.059v-527.594c0-7.183-5.904-13.059-13.119-13.059v0 0z" />
<glyph unicode="&#xe90d;" glyph-name="msplayer-play-inset" d="M512-64v0c-282.77 0-512 229.23-512 512s229.23 512 512 512c282.77 0 512-229.23 512-512s-229.23-512-512-512zM512-12.8c254.493 0 460.8 206.307 460.8 460.8s-206.307 460.8-460.8 460.8c-254.493 0-460.8-206.307-460.8-460.8s206.307-460.8 460.8-460.8v0zM378.816 727.015c-1.276 1.292-5.104 2.585-7.656 2.585-6.38 0-12.76-5.17-12.76-12.924v-522.129c0-6.462 5.104-12.924 12.76-12.924 2.552 0 6.38 1.292 7.656 2.585l384.080 261.065c2.552 1.292 5.104 5.17 5.104 10.339s-2.552 7.754-5.104 10.339l-384.080 261.065z" />
<glyph unicode="&#xe90e;" glyph-name="msplayer-plus" d="M921.6 538.493h-320.298v320.298c0 51.2-41.674 92.874-92.874 92.874s-92.874-41.674-92.874-92.874v-320.298h-320.298c-51.2 0-92.874-41.674-92.874-92.874s41.674-92.874 92.874-92.874h321.488v-320.298c0-51.2 41.674-91.684 92.874-91.684s92.874 41.674 92.874 91.684v320.298h320.298c51.2 0 92.874 41.674 92.874 92.874s-44.056 92.874-94.065 92.874v0 0z" />
<glyph unicode="&#xe90f;" glyph-name="msplayer-popup" horiz-adv-x="1243" d="M0 603.429c0 7.314 2.743 13.714 8.229 19.2s11.886 8.229 19.2 8.229h338.286v-73.143h-292.571v-548.571h658.286v182.857h73.143v-228.571c0-7.314-2.743-13.714-8.229-19.2s-11.886-8.229-19.2-8.229h-749.714c-7.314 0-13.714 2.743-19.2 8.229s-8.229 11.886-8.229 19.2v640zM1216 960c7.314 0 13.714-2.743 19.2-8.229s8.229-11.886 8.229-19.2v-640c0-7.314-2.743-13.714-8.229-19.2s-11.886-8.229-19.2-8.229h-749.714c-7.314 0-13.714 2.743-19.2 8.229s-8.229 11.886-8.229 19.2v640c0 7.314 2.743 13.714 8.229 19.2s11.886 8.229 19.2 8.229h749.714z" />
<glyph unicode="&#xe910;" glyph-name="msplayer-volume-bar-bck" horiz-adv-x="3413" d="M3218.286 740.571v-828.952h-97.524v828.952h97.524zM3413.333 740.571v-828.952h-97.524v828.952h97.524zM3023.238-88.381h-97.524v828.952h97.524v-828.952zM2828.19 740.571v-828.952h-97.524v828.952h97.524zM2633.143 740.571v-828.952h-97.524v828.952h97.524zM2438.095 740.571v-828.952h-97.524v828.952h97.524zM2243.048 740.571v-828.952h-97.524v828.952h97.524zM2048-88.381h-97.524v828.952h97.524v-828.952zM1657.905 740.571v-828.952h-97.524v828.952h97.524zM1852.952 740.571v-828.952h-97.524v828.952h97.524zM1267.81 740.571v-828.952h-97.524v828.952h97.524zM1462.857 740.571v-828.952h-97.524v828.952h97.524zM1072.762-88.381h-97.524v828.952h97.524v-828.952zM877.714 740.571v-828.952h-97.524v828.952h97.524zM682.667 740.571v-828.952h-97.524v828.952h97.524zM487.619 740.571v-828.952h-97.524v828.952h97.524zM97.524 740.571v-828.952h-97.524v828.952h97.524zM292.571 740.571v-828.952h-97.524v828.952h97.524z" />
<glyph unicode="&#xe911;" glyph-name="msplayer-previous" horiz-adv-x="624" d="M0 442.081l482.644-482.584c31.341-31.329 82.607-31.329 113.936 0 31.329 31.341 31.329 82.607 0 113.936l-368.684 368.684 368.684 368.684c31.329 31.329 31.329 82.595 0 113.924-31.329 31.341-82.595 31.341-113.936 0l-482.644-482.644z" />
<glyph unicode="&#xe912;" glyph-name="msplayer-twitter" horiz-adv-x="1249" d="M1234.506 832.333c-45.291-20.092-93.973-33.674-145.055-39.771 52.13 31.261 92.184 80.755 111.039 139.735-48.799-28.943-102.847-49.964-160.38-61.287-46.068 49.081-111.71 79.754-184.355 79.754-163.028 0-282.871-152.141-246.031-310.119-209.908 10.522-396.006 111.086-520.58 263.886-66.16-113.499-34.31-262.026 78.165-337.202-41.395 1.306-80.355 12.676-114.394 31.591-2.742-117.007 81.108-226.433 202.564-250.833-35.534-9.675-74.47-11.888-114.052-4.331 32.132-100.328 125.422-173.35 235.944-175.386-106.19-83.215-239.934-120.385-373.925-104.589 111.769-71.656 244.524-113.476 387.154-113.476 468.921 0 733.843 396.064 717.871 751.286 49.364 35.605 92.172 80.096 126.034 130.742z" />
<glyph unicode="&#xe913;" glyph-name="msplayer-volume" horiz-adv-x="798" d="M765.619 951.665c-5.953 0-10.716-2.381-14.288-4.763 0 0-225.042-150.028-422.698-283.386h-301.247c-13.098 0-23.814-10.716-23.814-23.814v-389.358c0-13.098 10.716-23.814 23.814-23.814h301.247l422.698-283.386c3.572-3.572 9.526-4.763 14.288-4.763 13.098 0 25.005 10.716 25.005 25.005v963.274c-1.191 14.288-11.907 25.005-25.005 25.005v0 0z" />
<glyph unicode="&#xe914;" horiz-adv-x="1036" d="M474.607 939.578c13.615 13.615 29.915 20.422 48.899 20.422 19.176 0 35.476-6.807 48.899-20.422 13.423-13.423 20.135-29.627 20.135-48.611 0-19.176-6.712-35.476-20.135-48.899s-29.723-20.135-48.899-20.135c-18.984 0-35.284 6.712-48.899 20.135-13.423 13.423-20.135 29.723-20.135 48.899 0 18.984 6.712 35.188 20.135 48.611v0z" />
<glyph unicode="&#xe915;" horiz-adv-x="1036" d="M474.607 53.645c13.615 13.615 29.915 20.422 48.899 20.422 19.176 0 35.476-6.807 48.899-20.422 13.423-13.423 20.135-29.627 20.135-48.611 0-19.176-6.712-35.476-20.135-48.899s-29.723-20.135-48.899-20.135c-18.984 0-35.284 6.712-48.899 20.135-13.423 13.423-20.135 29.723-20.135 48.899 0 18.984 6.712 35.188 20.135 48.611v0z" />
<glyph unicode="&#xe916;" horiz-adv-x="1036" d="M917.573 496.611c13.615 13.615 29.915 20.422 48.899 20.422 19.176 0 35.476-6.807 48.899-20.422 13.423-13.423 20.135-29.627 20.135-48.611 0-19.176-6.712-35.476-20.135-48.899s-29.723-20.135-48.899-20.135c-18.984 0-35.284 6.712-48.899 20.135-13.423 13.423-20.135 29.723-20.135 48.899 0 18.984 6.712 35.188 20.135 48.611v0z" />
<glyph unicode="&#xe917;" horiz-adv-x="1036" d="M20.135 496.611c13.615 13.615 29.915 20.422 48.899 20.422 19.176 0 35.476-6.807 48.899-20.422 13.423-13.423 20.135-29.627 20.135-48.611 0-19.176-6.712-35.476-20.135-48.899s-29.723-20.135-48.899-20.135c-18.984 0-35.284 6.712-48.899 20.135-13.423 13.423-20.135 29.723-20.135 48.899 0 18.984 6.712 35.188 20.135 48.611v0z" />
<glyph unicode="&#xe918;" horiz-adv-x="1036" d="M682.571 866.804c9.396 16.491 23.395 27.23 41.996 32.216 18.409 4.986 35.859 2.685 52.351-6.903s27.134-23.587 31.928-41.996c4.986-18.409 2.685-35.859-6.903-52.351-9.396-16.491-23.395-27.23-41.996-32.216-18.217-4.986-35.572-2.685-52.063 6.903s-27.23 23.587-32.216 41.996c-4.986 18.409-2.685 35.859 6.903 52.351v0z" />
<glyph unicode="&#xe919;" horiz-adv-x="1036" d="M281.6 131.596c18.409 4.986 35.859 2.685 52.351-6.903s27.134-23.587 31.928-41.996c4.986-18.409 2.685-35.763-6.903-52.063-9.588-16.491-23.587-27.23-41.996-32.216s-35.763-2.685-52.063 6.903c-16.491 9.588-27.23 23.587-32.216 41.996s-2.685 35.859 6.903 52.351c9.588 16.491 23.587 27.134 41.996 31.928v0z" />
<glyph unicode="&#xe91a;" horiz-adv-x="1036" d="M844.512 261.609c9.588 16.491 23.587 27.23 41.996 32.216 18.409 4.794 35.859 2.493 52.351-6.903s27.23-23.395 32.216-41.996c4.986-18.409 2.685-35.859-6.903-52.351-9.396-16.491-23.395-27.23-41.996-32.216-18.409-4.986-35.859-2.685-52.351 6.903s-27.23 23.587-32.216 41.996c-4.986 18.409-2.685 35.859 6.903 52.351v0z" />
<glyph unicode="&#xe91b;" horiz-adv-x="1036" d="M77.375 704.575c9.396 16.491 23.395 27.23 41.996 32.216 18.409 4.986 35.859 2.685 52.351-6.903 16.491-9.396 27.23-23.395 32.216-41.996 4.986-18.409 2.685-35.859-6.903-52.351s-23.587-27.23-41.996-32.216c-18.409-4.986-35.859-2.685-52.351 6.903s-27.23 23.587-32.216 41.996c-4.986 18.409-2.685 35.859 6.903 52.351v0z" />
<glyph unicode="&#xe91c;" horiz-adv-x="1036" d="M962.157 706.589c9.588-16.491 11.889-33.942 6.903-52.351s-15.724-32.312-32.216-41.708c-16.491-9.588-33.942-11.889-52.351-6.903-18.409 4.794-32.407 15.437-41.996 31.928s-11.889 33.942-6.903 52.351c4.986 18.601 15.724 32.599 32.216 41.996 16.491 9.588 33.942 11.889 52.351 6.903s32.407-15.724 41.996-32.216z" />
<glyph unicode="&#xe91d;" horiz-adv-x="1036" d="M152.737 295.838c18.409-4.986 32.407-15.724 41.996-32.216 9.588-16.3 11.889-33.75 6.903-52.351-4.794-18.217-15.437-32.12-31.928-41.708s-33.942-11.889-52.351-6.903c-18.409 4.794-32.407 15.437-41.996 31.928s-11.889 33.942-6.903 52.351c4.986 18.409 15.724 32.407 32.216 41.996 16.3 9.588 33.654 11.889 52.063 6.903v0z" />
<glyph unicode="&#xe91e;" horiz-adv-x="1036" d="M757.933 133.897c18.601-4.986 32.599-15.724 41.996-32.216 9.588-16.491 11.889-33.942 6.903-52.351-4.986-18.601-15.724-32.599-32.216-41.996-16.491-9.588-33.942-11.889-52.351-6.903s-32.407 15.724-41.996 32.216c-9.588 16.491-11.889 33.942-6.903 52.351s15.724 32.407 32.216 41.996c16.491 9.588 33.942 11.889 52.351 6.903v0z" />
<glyph unicode="&#xe91f;" horiz-adv-x="1036" d="M314.966 901.034c18.601-4.986 32.599-15.724 41.996-32.216s11.697-33.942 6.903-52.351c-4.986-18.409-15.724-32.407-32.216-41.996s-33.942-11.889-52.351-6.903c-18.409 4.986-32.407 15.724-41.996 32.216s-11.889 33.942-6.903 52.351c4.986 18.601 15.724 32.599 32.216 41.996 16.491 9.588 33.942 11.889 52.351 6.903v0z" />
<glyph unicode="&#xe920;" glyph-name="msplayer-spinner" d="M560.899 939.578q-20.422 20.422-48.899 20.422-28.764 0-48.899-20.422-20.135-20.135-20.135-48.611 0-28.764 20.135-48.899t48.899-20.135q28.476 0 48.899 20.135 20.135 20.135 20.135 48.899 0 28.476-20.135 48.611zM560.899 53.645q-20.422 20.422-48.899 20.422-28.764 0-48.899-20.422-20.135-20.135-20.135-48.611 0-28.764 20.135-48.899t48.899-20.135q28.476 0 48.899 20.135 20.135 20.135 20.135 48.899 0 28.476-20.135 48.611zM117.933 496.611q-20.422 20.422-48.899 20.422-28.764 0-48.899-20.422-20.135-20.135-20.135-48.611 0-28.764 20.135-48.899t48.899-20.135q28.476 0 48.899 20.135 20.135 20.135 20.135 48.899 0 28.476-20.135 48.611zM1003.865 496.611q-20.422 20.422-48.899 20.422-28.764 0-48.899-20.422-20.135-20.135-20.135-48.611 0-28.764 20.135-48.899t48.899-20.135q28.476 0 48.899 20.135 20.135 20.135 20.135 48.899 0 28.476-20.135 48.611zM352.935 866.804q-14.094 24.737-41.996 32.216-27.613 7.479-52.351-6.903t-31.928-41.996q-7.479-27.613 6.903-52.351 14.094-24.737 41.996-32.216 27.326-7.479 52.063 6.903t32.216 41.996-6.903 52.351zM753.906 131.596q-27.613 7.479-52.351-6.903t-31.928-41.996q-7.479-27.613 6.903-52.063 14.382-24.737 41.996-32.216t52.063 6.903q24.737 14.382 32.216 41.996t-6.903 52.351-41.996 31.928zM190.993 261.609q-14.382 24.737-41.996 32.216-27.613 7.191-52.351-6.903t-32.216-41.996q-7.479-27.613 6.903-52.351 14.094-24.737 41.996-32.216 27.613-7.479 52.351 6.903t32.216 41.996-6.903 52.351zM958.13 704.575q-14.094 24.737-41.996 32.216-27.613 7.479-52.351-6.903-24.737-14.094-32.216-41.996-7.479-27.613 6.903-52.351t41.996-32.216 52.351 6.903 32.216 41.996-6.903 52.351zM115.344 738.804q-27.613-7.479-41.996-32.216t-6.903-52.351 32.216-41.708q24.737-14.382 52.351-6.903 27.613 7.191 41.996 31.928t6.903 52.351q-7.479 27.901-32.216 41.996-24.737 14.382-52.351 6.903zM882.769 295.838q-27.613-7.479-41.996-32.216-14.382-24.449-6.903-52.351 7.191-27.326 31.928-41.708t52.351-6.903q27.613 7.191 41.996 31.928t6.903 52.351-32.216 41.996q-24.449 14.382-52.063 6.903zM277.573 133.897q-27.901-7.479-41.996-32.216-14.382-24.737-6.903-52.351 7.479-27.901 32.216-41.996 24.737-14.382 52.351-6.903t41.996 32.216 6.903 52.351-32.216 41.996-52.351 6.903zM720.539 901.034q-27.901-7.479-41.996-32.216t-6.903-52.351q7.479-27.613 32.216-41.996t52.351-6.903 41.996 32.216 6.903 52.351q-7.479 27.901-32.216 41.996-24.737 14.382-52.351 6.903z" />
<glyph unicode="&#xe921;" glyph-name="msplayer-see-again" horiz-adv-x="833" d="M832.703 691.622q0 6.752-6.189 10.69l-388.782 254.875q-3.938 2.813-7.877 2.813-5.064 0-9.002-3.938-4.501-3.938-4.501-9.565v-192.985l-33.196-2.251q-161.477-10.69-272.316-128.281-110.84-118.154-110.84-279.068 0-168.791 120.404-288.070 120.404-119.842 289.758-119.842 169.916 0 290.321 119.842 120.404 119.279 120.404 288.070 0 27.007-18.567 46.136-19.692 18.567-46.136 18.567t-45.574-18.567q-19.13-19.13-19.13-46.136 0-115.341-82.708-197.486-82.145-81.582-198.611-81.582-115.903 0-198.611 81.582-82.708 82.145-82.708 197.486 0 109.714 75.393 190.171 74.268 81.020 184.545 88.897l27.569 2.251v-188.484q0-5.064 3.938-9.002t9.565-3.938q3.376 0 7.877 2.251l388.782 254.312q6.189 6.189 6.189 11.253z" />
</font>
</defs>
</svg>
