<svg xmlns="http://www.w3.org/2000/svg" width="26" height="28" viewBox="0 0 26 28">
    <path fill="#FFF" fill-rule="nonzero" d="M21.273 18.508c-1.263 0-2.45.494-3.343 1.39-.248.25-.46.523-.645.812l-8.169-4.978a4.728 4.728 0 0 0 .339-1.753c0-.62-.123-1.21-.338-1.752l8.17-4.94a4.718 4.718 0 0 0 3.986 2.205c2.606 0 4.727-2.13 4.727-4.746C26 2.129 23.88 0 21.273 0s-4.728 2.129-4.728 4.746c0 .596.115 1.164.316 1.69L8.68 11.383a4.72 4.72 0 0 0-3.953-2.15C2.121 9.233 0 11.363 0 13.98c0 2.617 2.12 4.746 4.727 4.746a4.719 4.719 0 0 0 3.952-2.15l8.18 4.985a4.756 4.756 0 0 0-.314 1.694c0 1.268.492 2.46 1.385 3.356A4.687 4.687 0 0 0 21.273 28c1.262 0 2.45-.494 3.342-1.39A4.723 4.723 0 0 0 26 23.254c0-1.267-.492-2.46-1.385-3.355a4.687 4.687 0 0 0-3.342-1.39z"/>
</svg>
