<svg xmlns="http://www.w3.org/2000/svg" width="24" height="20" viewBox="0 0 24 20">
    <path fill="#FFF" fill-rule="evenodd" d="M11.374 19.136c-.148.074-.306.11-.464.11-.249 0-.495-.091-.695-.267l-5.954-5.26H1.089C.488 13.72 0 13.2 0 12.56V7.934c0-.642.488-1.162 1.09-1.162h3.17l5.956-5.259a1.033 1.033 0 0 1 1.158-.156c.382.19.626.6.626 1.05v15.678c0 .45-.244.86-.626 1.05zm4.797-3.273a1.067 1.067 0 0 1-.848-.328l-.146-.151a1.162 1.162 0 0 1-.105-1.472 6.689 6.689 0 0 0 1.245-3.913 6.655 6.655 0 0 0-1.412-4.14 1.161 1.161 0 0 1 .075-1.51l.145-.152c.218-.225.509-.348.824-.329.307.016.594.166.788.413 1.282 1.63 1.96 3.607 1.96 5.718a9.205 9.205 0 0 1-1.733 5.414c-.189.262-.478.427-.793.45zm4.499 3.731a1.07 1.07 0 0 1-.832.406c-.288 0-.565-.12-.77-.335l-.143-.15c-.4-.42-.426-1.09-.063-1.544 1.755-2.193 2.722-4.978 2.722-7.843 0-2.98-1.035-5.848-2.914-8.076a1.186 1.186 0 0 1 .044-1.565l.142-.15c.212-.224.487-.347.803-.336.3.009.583.148.782.383 2.27 2.687 3.522 6.148 3.522 9.744 0 3.461-1.17 6.823-3.293 9.466z"/>
</svg>
