<svg xmlns="http://www.w3.org/2000/svg" xmlns:xlink="http://www.w3.org/1999/xlink" width="20" height="19" viewBox="0 0 20 19">
    <defs>
        <path id="o45b1jtcna" d="M0 0.527L17.241 0.527 17.241 15.939 0 15.939z"/>
    </defs>
    <g fill="none" fill-rule="evenodd">
        <g>
            <g>
                <g>
                    <path fill="#FFF" d="M17.889 1.533l-.22.195-1.18 1.049L3.2 14.59c-.138.123-.31.178-.49.178-.172 0-.351-.055-.483-.178-.268-.24-.268-.626 0-.864L16.916.669c.131-.118.31-.178.483-.178.18 0 .352.06.49.178.27.238.27.624 0 .864" transform="translate(-982 -32) translate(961 21) translate(21 11.556)"/>
                    <g transform="translate(-982 -32) translate(961 21) translate(21 11.556) translate(1.38 .772)">
                        <mask id="6hx0oet7kb" fill="#fff">
                            <use xlink:href="#o45b1jtcna"/>
                        </mask>
                        <path fill="#FFF" d="M1.38.527C.62.527 0 1.073 0 1.753v9.355l1.38-1.226V1.753h9.144l1.38-1.226H1.378zm14.482 3.41v7.281h-4.98l-2.261 2.685-1.725-1.997-.979.87 2.718 3.163 2.937-3.495h4.29c.766 0 1.38-.545 1.38-1.226V2.71l-1.38 1.226z" mask="url(#6hx0oet7kb)"/>
                    </g>
                </g>
            </g>
        </g>
    </g>
</svg>
