<!-- Generated by IcoMoon.io -->
<svg version="1.1" xmlns="http://www.w3.org/2000/svg" width="32" height="32" viewBox="0 0 32 32">
<path fill="#ffffff" d="M31.172 27.061l-11.086-11.086 11.086-11.086c1.109-1.109 1.109-2.923 0-4.032s-2.923-1.109-4.032 0l-11.086 11.086-11.086-11.086c-1.109-1.109-2.923-1.109-4.031 0s-1.109 2.923 0 4.032l11.086 11.086-11.086 11.086c-1.109 1.109-1.109 2.923 0 4.032s2.923 1.108 4.031-0l11.086-11.086 11.087 11.086c1.108 1.109 2.923 1.109 4.031 0s1.109-2.923 0-4.032z"></path>
</svg>
