<!-- Generated by IcoMoon.io -->
<svg version="1.1" xmlns="http://www.w3.org/2000/svg" width="39" height="32" viewBox="0 0 39 32">
<path fill="#ffffff" d="M11.498 0.298h-10.716c-0.335 0-0.595 0.26-0.595 0.595v0 10.716c0 0.409 0.335 0.744 0.744 0.744h1.451c0.409 0 0.744-0.335 0.744-0.744v-8.372h8.372c0.409 0 0.744-0.335 0.744-0.744v-1.451c0-0.409-0.335-0.744-0.744-0.744v0 0z"></path>
<path fill="#ffffff" d="M38.623 11.572v-10.716c0-0.335-0.26-0.595-0.595-0.595v0h-10.716c-0.409 0-0.744 0.335-0.744 0.744v1.451c0 0.409 0.335 0.744 0.744 0.744h8.372v8.372c0 0.409 0.335 0.744 0.744 0.744h1.451c0.409 0 0.744-0.335 0.744-0.744v0 0z"></path>
<path fill="#ffffff" d="M27.312 31.926h10.716c0.335 0 0.595-0.26 0.595-0.595v0-10.716c0-0.409-0.335-0.744-0.744-0.744h-1.451c-0.409 0-0.744 0.335-0.744 0.744v8.372h-8.372c-0.409 0-0.744 0.335-0.744 0.744v1.451c0 0.409 0.335 0.744 0.744 0.744v0 0z"></path>
<path fill="#ffffff" d="M0.186 20.614v10.716c0 0.335 0.26 0.595 0.595 0.595v0h10.716c0.409 0 0.744-0.335 0.744-0.744v-1.451c0-0.409-0.335-0.744-0.744-0.744h-8.372v-8.372c0-0.409-0.335-0.744-0.744-0.744h-1.451c-0.409 0.037-0.744 0.335-0.744 0.744v0 0z"></path>
</svg>
