<!-- Generated by IcoMoon.io -->
<svg version="1.1" xmlns="http://www.w3.org/2000/svg" width="55" height="32" viewBox="0 0 55 32">
<path fill="#ffffff" d="M54.168 18.111h-6.621v6.621h-4.782v-6.621h-6.621v-4.414h6.621v-6.621h4.782v6.621h6.621v4.414zM16.283 13.697v5.149h8.795c-0.357 2.575-2.68 6.877-8.865 6.877-5.337 0-9.691-4.352-9.691-9.803 0-5.448 4.355-9.836 9.691-9.836 3.037 0 5.069 1.312 6.23 2.428l4.242-4.078c-2.724-2.546-6.252-4.082-10.472-4.082-8.641 0-15.631 6.991-15.631 15.633s6.989 15.632 15.631 15.632c9.021 0 15.008-6.37 15.008-15.302 0-1.027-0.114-1.883-0.248-2.619h-14.69z"></path>
</svg>
