<svg xmlns="http://www.w3.org/2000/svg" width="37" height="28" viewBox="0 0 37 28">
    <g fill="#FFF" fill-rule="nonzero">
        <path d="M34.336 0H9.664C8.184 0 7 1.129 7 2.47v14.216c0 1.372 1.217 2.47 2.664 2.47h17.007l3.849 3.6a.854.854 0 0 0 .592.244c.46 0 .855-.336.855-.793v-3.05h2.369c1.48 0 2.664-1.13 2.664-2.471V2.47C37 1.098 35.783 0 34.336 0zM13 12.075c-1.312 0-2.4-1.043-2.4-2.3s1.088-2.3 2.4-2.3c1.312 0 2.4 1.043 2.4 2.3s-1.056 2.3-2.4 2.3zm9 0c-1.312 0-2.4-1.043-2.4-2.3s1.088-2.3 2.4-2.3c1.312 0 2.4 1.043 2.4 2.3s-1.088 2.3-2.4 2.3zm8.4 0c-1.312 0-2.4-1.043-2.4-2.3s1.088-2.3 2.4-2.3c1.312 0 2.4 1.043 2.4 2.3s-1.088 2.3-2.4 2.3z"/>
        <path d="M4.283 17.799V13H1.682c-.92 0-1.681.724-1.681 1.6v9.235c-.032.936.73 1.66 1.681 1.66h1.49v1.992c0 .272.254.513.54.513.159 0 .285-.06.38-.15l2.443-2.325h10.784c.92 0 1.681-.724 1.681-1.6v-2.293H8.311c-2.22 0-4.028-1.72-4.028-3.833z"/>
    </g>
</svg>
