<!-- Generated by IcoMoon.io -->
<svg version="1.1" xmlns="http://www.w3.org/2000/svg" width="24" height="32" viewBox="0 0 24 32">
<path fill="#ffffff" d="M1.371 0.229c0.171-0.153 0.353-0.229 0.543-0.229h5.286c0.21 0 0.39 0.076 0.543 0.229 0.171 0.171 0.257 0.362 0.257 0.571v30.371c0 0.21-0.086 0.4-0.257 0.571-0.153 0.171-0.333 0.257-0.543 0.257h-5.286c-0.19 0-0.371-0.086-0.543-0.257-0.153-0.171-0.229-0.362-0.229-0.571v-30.371c0-0.21 0.076-0.4 0.229-0.571zM16.8 0h5.257c0.229 0 0.419 0.076 0.571 0.229 0.153 0.171 0.229 0.362 0.229 0.571v30.371c0 0.21-0.077 0.4-0.229 0.571s-0.343 0.257-0.571 0.257h-5.257c-0.21 0-0.4-0.086-0.571-0.257-0.153-0.171-0.229-0.362-0.229-0.571v-30.371c0-0.21 0.077-0.4 0.229-0.571 0.171-0.153 0.362-0.229 0.571-0.229z"></path>
</svg>
