<!-- Generated by IcoMoon.io -->
<svg version="1.1" xmlns="http://www.w3.org/2000/svg" width="33" height="32" viewBox="0 0 33 32">
<path fill="#ffffff" d="M16.453 32v0c-8.837 0-16-7.163-16-16s7.163-16 16-16c8.837 0 16 7.163 16 16s-7.163 16-16 16zM16.453 30.4c7.953 0 14.4-6.447 14.4-14.4s-6.447-14.4-14.4-14.4c-7.953 0-14.4 6.447-14.4 14.4s6.447 14.4 14.4 14.4v0z"></path>
<path fill="#ffffff" d="M14.569 24.713h-2.357c-0.226 0-0.41-0.184-0.41-0.408v-16.487c0-0.224 0.184-0.408 0.41-0.408h2.357c0.226 0 0.41 0.184 0.41 0.408v16.487c0 0.224-0.184 0.408-0.41 0.408v0 0z"></path>
<path fill="#ffffff" d="M20.923 24.713h-2.357c-0.226 0-0.41-0.184-0.41-0.408v-16.487c0-0.224 0.184-0.408 0.41-0.408h2.357c0.226 0 0.41 0.184 0.41 0.408v16.487c0 0.224-0.184 0.408-0.41 0.408v0 0z"></path>
</svg>
