<!-- Generated by IcoMoon.io -->
<svg version="1.1" xmlns="http://www.w3.org/2000/svg" width="24" height="32" viewBox="0 0 24 32">
<path fill="#ffffff" d="M23.657 15.371c0.133 0.095 0.238 0.238 0.314 0.429 0.057 0.153 0.057 0.324 0 0.514-0.077 0.153-0.181 0.286-0.314 0.4l-22.286 15.143c-0.19 0.095-0.381 0.143-0.571 0.143-0.19-0.038-0.353-0.133-0.486-0.286-0.133-0.171-0.2-0.352-0.2-0.543l-0.114-30.371c0-0.19 0.067-0.362 0.2-0.514 0.133-0.171 0.295-0.267 0.486-0.286 0.21-0.019 0.4 0.019 0.571 0.114l22.4 15.257z"></path>
</svg>
