<!-- Generated by IcoMoon.io -->
<svg version="1.1" xmlns="http://www.w3.org/2000/svg" width="32" height="32" viewBox="0 0 32 32">
<path fill="#ffffff" d="M16 32v0c-8.837 0-16-7.163-16-16s7.163-16 16-16c8.837 0 16 7.163 16 16s-7.163 16-16 16zM16 30.4c7.953 0 14.4-6.447 14.4-14.4s-6.447-14.4-14.4-14.4c-7.953 0-14.4 6.447-14.4 14.4s6.447 14.4 14.4 14.4v0z"></path>
<path fill="#ffffff" d="M11.838 7.281c-0.040-0.040-0.159-0.081-0.239-0.081-0.199 0-0.399 0.162-0.399 0.404v16.317c0 0.202 0.159 0.404 0.399 0.404 0.080 0 0.199-0.040 0.239-0.081l12.002-8.158c0.080-0.040 0.16-0.162 0.16-0.323s-0.080-0.242-0.16-0.323l-12.002-8.158z"></path>
</svg>
