<!-- Generated by IcoMoon.io -->
<svg version="1.1" xmlns="http://www.w3.org/2000/svg" width="39" height="32" viewBox="0 0 39 32">
<path fill="#ffffff" d="M0 11.143c0-0.229 0.086-0.429 0.257-0.6s0.371-0.257 0.6-0.257h10.571v2.286h-9.143v17.143h20.571v-5.714h2.286v7.143c0 0.229-0.086 0.429-0.257 0.6s-0.371 0.257-0.6 0.257h-23.429c-0.229 0-0.429-0.086-0.6-0.257s-0.257-0.371-0.257-0.6v-20z"></path>
<path fill="#ffffff" d="M38 0c0.229 0 0.429 0.086 0.6 0.257s0.257 0.371 0.257 0.6v20c0 0.229-0.086 0.429-0.257 0.6s-0.371 0.257-0.6 0.257h-23.429c-0.229 0-0.429-0.086-0.6-0.257s-0.257-0.371-0.257-0.6v-20c0-0.229 0.086-0.429 0.257-0.6s0.371-0.257 0.6-0.257h23.429z"></path>
</svg>
