<!-- Generated by IcoMoon.io -->
<svg version="1.1" xmlns="http://www.w3.org/2000/svg" width="26" height="32" viewBox="0 0 26 32">
<path fill="#ffffff" d="M26.022 8.387q0-0.211-0.193-0.334l-12.149-7.965q-0.123-0.088-0.246-0.088-0.158 0-0.281 0.123-0.141 0.123-0.141 0.299v6.031l-1.037 0.070q-5.046 0.334-8.51 4.009-3.464 3.692-3.464 8.721 0 5.275 3.763 9.002 3.763 3.745 9.055 3.745 5.31 0 9.073-3.745 3.763-3.727 3.763-9.002 0-0.844-0.58-1.442-0.615-0.58-1.442-0.58t-1.424 0.58q-0.598 0.598-0.598 1.442 0 3.604-2.585 6.171-2.567 2.549-6.207 2.549-3.622 0-6.207-2.549-2.585-2.567-2.585-6.171 0-3.429 2.356-5.943 2.321-2.532 5.767-2.778l0.862-0.070v5.89q0 0.158 0.123 0.281t0.299 0.123q0.105 0 0.246-0.070l12.149-7.947q0.193-0.193 0.193-0.352z"></path>
</svg>
