<!-- Generated by IcoMoon.io -->
<svg version="1.1" xmlns="http://www.w3.org/2000/svg" width="32" height="32" viewBox="0 0 32 32">
<path fill="#ffffff" d="M23.2 8.8c-0.99-0.991-1.486-2.209-1.486-3.657 0-1.409 0.496-2.629 1.486-3.657 0.991-0.991 2.209-1.486 3.657-1.486 1.409 0 2.609 0.495 3.6 1.486 1.029 1.029 1.543 2.248 1.543 3.657 0 1.448-0.514 2.666-1.543 3.657-0.991 0.991-2.152 1.486-3.486 1.486h-0.171c-1.409 0-2.609-0.495-3.6-1.486zM32 26.857c0 1.448-0.514 2.666-1.543 3.657-0.991 0.99-2.152 1.486-3.486 1.486h-0.171c-1.409 0-2.609-0.496-3.6-1.486-0.99-0.991-1.486-2.21-1.486-3.657 0-1.409 0.496-2.629 1.486-3.657 0.991-0.99 2.21-1.486 3.657-1.486 1.409 0 2.609 0.496 3.6 1.486 1.029 1.029 1.543 2.248 1.543 3.657zM5.086 10.857h0.171c1.334 0 2.495 0.495 3.486 1.486 1.029 1.029 1.543 2.248 1.543 3.657 0 0.952-0.229 1.809-0.686 2.571-0.229 0.381-0.514 0.743-0.857 1.086-0.991 0.99-2.191 1.486-3.6 1.486-1.448 0-2.666-0.496-3.657-1.486-0.343-0.343-0.609-0.705-0.8-1.086-0.457-0.762-0.686-1.619-0.686-2.571 0-1.409 0.495-2.629 1.486-3.657 0.991-0.991 2.191-1.486 3.6-1.486z"></path>
<path fill="#ffffff" d="M27.171 24.914c0.421 0.215 0.706 0.549 0.857 1 0.153 0.45 0.123 0.887-0.086 1.314-0.215 0.422-0.549 0.707-1 0.857-0.449 0.152-0.886 0.123-1.314-0.086l-20.971-10.457c-0.393-0.199-0.67-0.503-0.829-0.914-0.159-0.408-0.159-0.818 0-1.229s0.435-0.714 0.829-0.914l20.571-10.571c0.415-0.218 0.843-0.257 1.286-0.114 0.45 0.147 0.783 0.433 1 0.857 0.218 0.415 0.257 0.843 0.114 1.286-0.149 0.449-0.434 0.782-0.857 1l-17.543 9.029 17.943 8.943z"></path>
</svg>
