<svg xmlns="http://www.w3.org/2000/svg" width="24" height="30" viewBox="0 0 24 30">
    <g fill="#FFF" stroke="#FFF" stroke-width=".5">
        <path d="M20.977 9.1h-2.73v1.82h1.82V27.3h-18.2V10.92h1.82V9.1H.957c-.503 0-.91.407-.91.91v18.2c0 .503.407.91.91.91h20.02c.503 0 .91-.407.91-.91v-18.2c0-.503-.407-.91-.91-.91z" transform="translate(1)"/>
        <path d="M10.057 3.484L10.057 16.38 11.877 16.38 11.877 3.484 15.784 7.39 17.071 6.103 10.967 0 4.864 6.103 6.151 7.39z" transform="translate(1)"/>
    </g>
</svg>
