<!-- Generated by IcoMoon.io -->
<svg version="1.1" xmlns="http://www.w3.org/2000/svg" width="32" height="32" viewBox="0 0 32 32">
<path fill="#ffffff" d="M17.528 0.638q-0.638-0.638-1.528-0.638-0.899 0-1.528 0.638-0.629 0.629-0.629 1.519 0 0.899 0.629 1.528t1.528 0.629q0.89 0 1.528-0.629 0.629-0.629 0.629-1.528 0-0.89-0.629-1.519z"></path>
<path fill="#ffffff" d="M17.528 28.324q-0.638-0.638-1.528-0.638-0.899 0-1.528 0.638-0.629 0.629-0.629 1.519 0 0.899 0.629 1.528t1.528 0.629q0.89 0 1.528-0.629 0.629-0.629 0.629-1.528 0-0.89-0.629-1.519z"></path>
<path fill="#ffffff" d="M3.685 14.481q-0.638-0.638-1.528-0.638-0.899 0-1.528 0.638-0.629 0.629-0.629 1.519 0 0.899 0.629 1.528t1.528 0.629q0.89 0 1.528-0.629 0.629-0.629 0.629-1.528 0-0.89-0.629-1.519z"></path>
<path fill="#ffffff" d="M31.371 14.481q-0.638-0.638-1.528-0.638-0.899 0-1.528 0.638-0.629 0.629-0.629 1.519 0 0.899 0.629 1.528t1.528 0.629q0.89 0 1.528-0.629 0.629-0.629 0.629-1.528 0-0.89-0.629-1.519z"></path>
<path fill="#ffffff" d="M11.029 2.912q-0.44-0.773-1.312-1.007-0.863-0.234-1.636 0.216t-0.998 1.312q-0.234 0.863 0.216 1.636 0.44 0.773 1.312 1.007 0.854 0.234 1.627-0.216t1.007-1.312-0.216-1.636z"></path>
<path fill="#ffffff" d="M23.56 25.888q-0.863-0.234-1.636 0.216t-0.998 1.312q-0.234 0.863 0.216 1.627 0.449 0.773 1.312 1.007t1.627-0.216q0.773-0.449 1.007-1.312t-0.216-1.636-1.312-0.998z"></path>
<path fill="#ffffff" d="M5.969 21.825q-0.449-0.773-1.312-1.007-0.863-0.225-1.636 0.216t-1.007 1.312q-0.234 0.863 0.216 1.636 0.44 0.773 1.312 1.007 0.863 0.234 1.636-0.216t1.007-1.312-0.216-1.636z"></path>
<path fill="#ffffff" d="M29.942 7.982q-0.44-0.773-1.312-1.007-0.863-0.234-1.636 0.216-0.773 0.44-1.007 1.312-0.234 0.863 0.216 1.636t1.312 1.007 1.636-0.216 1.007-1.312-0.216-1.636z"></path>
<path fill="#ffffff" d="M3.604 6.912q-0.863 0.234-1.312 1.007t-0.216 1.636 1.007 1.303q0.773 0.449 1.636 0.216 0.863-0.225 1.312-0.998t0.216-1.636q-0.234-0.872-1.007-1.312-0.773-0.449-1.636-0.216z"></path>
<path fill="#ffffff" d="M27.587 20.755q-0.863 0.234-1.312 1.007-0.449 0.764-0.216 1.636 0.225 0.854 0.998 1.303t1.636 0.216q0.863-0.225 1.312-0.998t0.216-1.636-1.007-1.312q-0.764-0.449-1.627-0.216z"></path>
<path fill="#ffffff" d="M8.674 25.816q-0.872 0.234-1.312 1.007-0.449 0.773-0.216 1.636 0.234 0.872 1.007 1.312 0.773 0.449 1.636 0.216t1.312-1.007 0.216-1.636-1.007-1.312-1.636-0.216z"></path>
<path fill="#ffffff" d="M22.517 1.843q-0.872 0.234-1.312 1.007t-0.216 1.636q0.234 0.863 1.007 1.312t1.636 0.216 1.312-1.007 0.216-1.636q-0.234-0.872-1.007-1.312-0.773-0.449-1.636-0.216z"></path>
</svg>
