<svg xmlns="http://www.w3.org/2000/svg" width="32" height="25" fill="none" viewBox="0 0 32 25">
    <path fill="#fff" fill-rule="evenodd" d="M28.878 1.64H3.122c-.862 0-1.561.733-1.561 1.639V21.72c0 .906.699 1.64 1.561 1.64h25.756c.862 0 1.561-.734 1.561-1.64V3.28c0-.906-.699-1.64-1.561-1.64zM3.122 0C1.398 0 0 1.468 0 3.279V21.72C0 23.532 1.398 25 3.122 25h25.756C30.602 25 32 23.532 32 21.721V3.28C32 1.468 30.602 0 28.878 0H3.122z" clip-rule="evenodd"/>
    <path fill="#fff" fill-rule="evenodd" d="M3.126 15.104c0-.453.35-.82.78-.82h5.182c.43 0 .78.367.78.82 0 .453-.35.82-.78.82H3.906c-.43 0-.78-.367-.78-.82zM21.468 19.202c0-.452.35-.82.78-.82h5.182c.43 0 .78.368.78.82 0 .453-.35.82-.78.82h-5.182c-.43 0-.78-.367-.78-.82zM12.102 15.1c.001-.452.352-.817.783-.816l14.435.06c.431.002.78.37.778.823-.002.453-.353.818-.784.817l-14.435-.06c-.431-.002-.78-.37-.777-.823zM3.126 19.2c.002-.454.353-.82.784-.817l14.435.06c.43.001.779.37.777.822-.002.453-.352.819-.784.817l-14.435-.06c-.43-.002-.779-.37-.777-.823z" clip-rule="evenodd"/>
    <path fill="#fff" fill-rule="evenodd" d="M28.878 1.64H3.122c-.862 0-1.561.733-1.561 1.639V21.72c0 .906.699 1.64 1.561 1.64h25.756c.862 0 1.561-.734 1.561-1.64V3.28c0-.906-.699-1.64-1.561-1.64zM3.122 0C1.398 0 0 1.468 0 3.279V21.72C0 23.532 1.398 25 3.122 25h25.756C30.602 25 32 23.532 32 21.721V3.28C32 1.468 30.602 0 28.878 0H3.122z" clip-rule="evenodd"/>
    <path fill="#fff" d="M9.088 14.284c.43 0 .78.367.78.82 0 .432-.318.786-.722.817l-.058.003H3.906c-.43 0-.78-.367-.78-.82 0-.432.318-.786.722-.817l.058-.003h5.182zM27.43 18.383c.43 0 .78.367.78.82 0 .431-.318.785-.722.817l-.058.002h-5.182c-.43 0-.78-.367-.78-.82 0-.432.318-.786.722-.817l.058-.002h5.182zM12.885 14.284l14.435.06c.431.002.78.37.778.823-.002.432-.322.785-.726.815l-.058.002-14.435-.06c-.431-.002-.78-.37-.777-.823.001-.432.32-.785.725-.815l.058-.002zM3.91 18.383l14.435.06c.43.001.779.37.777.822-.002.433-.321.785-.725.815l-.058.002-14.436-.06c-.43-.002-.779-.37-.777-.823.002-.432.321-.785.725-.814l.059-.002z"/>
</svg>
