<!-- Generated by IcoMoon.io -->
<svg version="1.1" xmlns="http://www.w3.org/2000/svg" width="39" height="32" viewBox="0 0 39 32">
<path fill="#ffffff" d="M38.578 3.99c-1.415 0.628-2.937 1.052-4.533 1.243 1.629-0.977 2.881-2.524 3.47-4.367-1.525 0.904-3.214 1.561-5.012 1.915-1.44-1.534-3.491-2.492-5.761-2.492-5.095 0-8.84 4.754-7.688 9.691-6.56-0.329-12.375-3.471-16.268-8.246-2.067 3.547-1.072 8.188 2.443 10.538-1.294-0.041-2.511-0.396-3.575-0.987-0.086 3.656 2.535 7.076 6.33 7.839-1.11 0.302-2.327 0.372-3.564 0.135 1.004 3.135 3.919 5.417 7.373 5.481-3.318 2.6-7.498 3.762-11.685 3.268 3.493 2.239 7.641 3.546 12.099 3.546 14.654 0 22.933-12.377 22.433-23.478 1.543-1.113 2.88-2.503 3.939-4.086z"></path>
</svg>
