<!-- Generated by IcoMoon.io -->
<svg version="1.1" xmlns="http://www.w3.org/2000/svg" width="107" height="32" viewBox="0 0 107 32">
<path fill="#ffffff" d="M106.667 0v32h-3.048v-32h3.048zM100.571 0v32h-3.048v-32h3.048zM94.476 32h-3.048v-32h3.048v32zM88.381 0v32h-3.048v-32h3.048zM82.286 0v32h-3.048v-32h3.048zM70.095 0v32h-3.048v-32h3.048zM76.19 0v32h-3.048v-32h3.048zM64 32h-3.048v-32h3.048v32zM57.905 0v32h-3.048v-32h3.048zM51.81 0v32h-3.048v-32h3.048zM45.714 0v32h-3.048v-32h3.048zM39.619 0v32h-3.048v-32h3.048zM33.524 32h-3.048v-32h3.048v32zM27.429 0v32h-3.048v-32h3.048zM21.333 0v32h-3.048v-32h3.048zM9.143 0v32h-3.048v-32h3.048zM3.048 0v32h-3.048v-32h3.048zM15.238 0v32h-3.048v-32h3.048z"></path>
</svg>
