<svg xmlns="http://www.w3.org/2000/svg" viewBox="0 0 33.94 31.71"><title>Asset 1</title><g id="Layer_2" data-name="Layer 2"><g id="Layer_1-2" data-name="Layer 1"><g id="Layer_1-3" data-name="Layer 1"><path d="M23.82,0a.8.8,0,0,0-.45.15L10.16,9H.75A.75.75,0,0,0,0,9.78V22a.75.75,0,0,0,.74.74h9.41l13.21,8.86a.65.65,0,0,0,.45.15.79.79,0,0,0,.78-.78V.78A.81.81,0,0,0,23.81,0h0Z" style="fill:#fff"/></g><g id="Layer_3" data-name="Layer 3"><path d="M33.43,21.81l-6.8-6.1,6.8-6.1a1.47,1.47,0,0,0,0-2.22,1.93,1.93,0,0,0-2.08-.27,1.37,1.37,0,0,0-.39.27l-6.8,6.1-6.8-6.1a1.93,1.93,0,0,0-2.08-.27,1.37,1.37,0,0,0-.39.27,1.47,1.47,0,0,0,0,2.22l6.8,6.1-6.8,6.1a1.47,1.47,0,0,0,0,2.22A1.93,1.93,0,0,0,17,24.3a1.37,1.37,0,0,0,.39-.27l6.8-6.1L31,24A1.93,1.93,0,0,0,33,24.3a1.37,1.37,0,0,0,.39-.27A1.67,1.67,0,0,0,33.43,21.81Z" style="fill:red"/></g></g></g></svg>