<!-- Generated by IcoMoon.io -->
<svg version="1.1" xmlns="http://www.w3.org/2000/svg" width="107" height="32" viewBox="0 0 107 32">
<path fill="#ffffff" d="M100.571 6.857v25.905h-3.048v-25.905h3.048zM106.667 6.857v25.905h-3.048v-25.905h3.048zM94.476 32.762h-3.048v-25.905h3.048v25.905zM88.381 6.857v25.905h-3.048v-25.905h3.048zM82.286 6.857v25.905h-3.048v-25.905h3.048zM76.19 6.857v25.905h-3.048v-25.905h3.048zM70.095 6.857v25.905h-3.048v-25.905h3.048zM64 32.762h-3.048v-25.905h3.048v25.905zM51.81 6.857v25.905h-3.048v-25.905h3.048zM57.905 6.857v25.905h-3.048v-25.905h3.048zM39.619 6.857v25.905h-3.048v-25.905h3.048zM45.714 6.857v25.905h-3.048v-25.905h3.048zM33.524 32.762h-3.048v-25.905h3.048v25.905zM27.429 6.857v25.905h-3.048v-25.905h3.048zM21.333 6.857v25.905h-3.048v-25.905h3.048zM15.238 6.857v25.905h-3.048v-25.905h3.048zM3.048 6.857v25.905h-3.048v-25.905h3.048zM9.143 6.857v25.905h-3.048v-25.905h3.048z"></path>
</svg>
