<?xml version="1.0" encoding="UTF-8" standalone="no"?><!DOCTYPE svg PUBLIC "-//W3C//DTD SVG 1.1//EN" "http://www.w3.org/Graphics/SVG/1.1/DTD/svg11.dtd"><svg width="100%" height="100%" viewBox="0 0 20 38" version="1.1" xmlns="http://www.w3.org/2000/svg" xmlns:xlink="http://www.w3.org/1999/xlink" xml:space="preserve" style="fill-rule:evenodd;clip-rule:evenodd;stroke-linejoin:round;stroke-miterlimit:1.41421;"><path d="M13.941,11.557c2.004,0.024 4.093,-0.038 6.05,0.031c-0.062,2.101 -0.015,4.318 -0.031,6.466l-6.019,0l0,19.946l-8.477,0l0,-19.915c-1.757,-0.078 -3.653,-0.016 -5.464,-0.031l0,-6.497l5.402,0c0.085,-1.705 -0.023,-3.232 0.093,-4.62c0.115,-1.341 0.562,-2.488 1.21,-3.465c1.233,-1.853 3.291,-3.303 6.057,-3.434c2.289,-0.109 4.84,0.054 7.229,0.031c-0.015,2.155 0.046,4.395 -0.031,6.496c-1.202,0.07 -2.42,-0.093 -3.475,0c-1.072,0.093 -1.85,0.76 -2.235,1.558c-0.424,0.892 -0.301,2.078 -0.309,3.434" style="fill:#fff;fill-rule:nonzero;"/></svg>