<?xml version="1.0" encoding="UTF-8" standalone="no"?><!DOCTYPE svg PUBLIC "-//W3C//DTD SVG 1.1//EN" "http://www.w3.org/Graphics/SVG/1.1/DTD/svg11.dtd"><svg width="100%" height="100%" viewBox="0 0 50 32" version="1.1" xmlns="http://www.w3.org/2000/svg" xmlns:xlink="http://www.w3.org/1999/xlink" xml:space="preserve" style="fill-rule:evenodd;clip-rule:evenodd;stroke-linejoin:round;stroke-miterlimit:1.41421;"><path id="G-" d="M31.132,12.833c1.064,7.665 -2.141,19.167 -15.252,19.167c-8.769,0 -15.88,-7.164 -15.88,-16.001c0,-8.835 7.111,-15.999 15.88,-15.999c4.116,0 7.866,1.578 10.686,4.164c-3.322,3.164 -3.212,3.35 -4.518,4.666c-1.634,-1.359 -3.413,-2.334 -6.168,-2.334c-5.209,0 -9.275,4.255 -9.275,9.503c0,5.25 4.066,9.505 9.275,9.505c5.149,0 7.241,-2.236 8.587,-6.344c-2.484,0 -8.587,0.007 -8.587,0.007l0,-6.334l15.252,0Zm13.366,0.315l5.502,0l0,3.96l-5.502,0l0,5.704l-3.931,0l0,-5.704l-5.662,0l0,-3.96l5.662,0l0,-5.543l3.931,0l0,5.543Z" style="fill:#fff;"/></svg>