<svg width="100" height="100" viewBox="0 0 100 100" fill="none" xmlns="http://www.w3.org/2000/svg">
<g clip-path="url(#clip0_2342_1271)">
<path d="M92.8176 89.7995L59.3102 42.2286L55.5218 36.848L31.5537 2.82045L29.5681 0H0.115479L7.29792 10.2005L39.166 55.4508L42.9544 60.8244L68.56 97.183L70.5457 100H99.9983L92.8158 89.7995H92.8176ZM74.0481 93.4895L47.4461 55.7164L43.6577 50.3393L12.7878 6.51046H26.0657L51.0302 41.9561L54.8185 47.3332L87.326 93.4895H74.0481Z" fill="white"/>
<path d="M43.6576 50.3411L47.446 55.7181L42.9543 60.8262L8.49673 100H0L39.166 55.4508L43.6576 50.3411Z" fill="white"/>
<path d="M96.4549 0L59.3101 42.2286L54.8202 47.3332L51.0319 41.9561L55.5218 36.8498L80.6834 8.2305L87.9564 0H96.4549Z" fill="white"/>
</g>
<defs>
<clipPath id="clip0_2342_1271">
<rect width="100" height="100" fill="white"/>
</clipPath>
</defs>
</svg>